<?xml version="1.0" encoding="UTF-8"?>
<svg width="73px" height="18px" viewBox="0 0 73 18" version="1.1" xmlns="http://www.w3.org/2000/svg" xmlns:xlink="http://www.w3.org/1999/xlink">
    <!-- Generator: Sketch 55.2 (78181) - https://sketchapp.com -->
    <title>Logo / dark Copy 2</title>
    <desc>Created with Sketch.</desc>
    <g id="Page-2" stroke="none" stroke-width="1" fill="none" fill-rule="evenodd">
        <g id="Logo-/-dark" fill="#2F353A">
            <g id="Group">
                <path d="M14.67,12.906 C14.8260008,12.906 14.9489996,12.9779993 15.039,13.122 C15.1290004,13.2660007 15.174,13.4639987 15.174,13.716 C15.174,14.1840023 15.0600011,14.5559986 14.832,14.832 C14.1599966,15.636004 13.5090031,16.1999984 12.879,16.524 C12.2489969,16.8480016 11.4900044,17.01 10.602,17.01 C9.97799688,17.01 9.40200264,16.9320008 8.874,16.776 C8.34599736,16.6199992 7.70400378,16.3860016 6.948,16.074 C6.26399658,15.7739985 5.60400318,15.528001 4.968,15.336 C4.35599694,16.4520056 3.43800612,17.01 2.214,17.01 C1.54199664,17.01 1.00500201,16.8570015 0.603,16.551 C0.20099799,16.2449985 0,15.8520024 0,15.372 C0,14.7839971 0.28199718,14.2950019 0.846,13.905 C1.41000282,13.514998 2.15999532,13.32 3.096,13.32 L3.33,13.32 L3.654,8.082 C3.72600036,6.881994 3.9419982,5.8920039 4.302,5.112 C4.6620018,4.3319961 5.15999682,3.66600276 5.796,3.114 C6.34800276,2.6339976 6.97799646,2.27100123 7.686,2.025 C8.39400354,1.77899877 9.14399604,1.656 9.936,1.656 C11.2320065,1.656 12.2279965,1.99199664 12.924,2.664 C13.6200035,3.33600336 13.968,4.2119946 13.968,5.292 C13.968,6.02400366 13.8360013,6.61499775 13.572,7.065 C13.3079987,7.51500225 12.9420023,7.74 12.474,7.74 C12.1379983,7.74 11.874001,7.65900081 11.682,7.497 C11.489999,7.33499919 11.394,7.1040015 11.394,6.804 C11.394,6.69599946 11.4179998,6.49800144 11.466,6.21 C11.5380004,5.87399832 11.574,5.57400132 11.574,5.31 C11.574,4.80599748 11.4270015,4.40700147 11.133,4.113 C10.8389985,3.81899853 10.392003,3.672 9.792,3.672 C8.73599472,3.672 7.92000288,4.01699655 7.344,4.707 C6.76799712,5.39700345 6.40200078,6.47999262 6.246,7.956 L5.832,12.042 C5.7719997,12.6180029 5.69400048,13.1159979 5.598,13.536 C6.36600384,13.6680007 7.32599424,13.8779986 8.478,14.166 C9.15000336,14.3340008 9.6659982,14.4539996 10.026,14.526 C10.3860018,14.5980004 10.7039986,14.634 10.98,14.634 C11.6760035,14.634 12.2729975,14.5170012 12.771,14.283 C13.2690025,14.0489988 13.7399978,13.6740026 14.184,13.158 C14.3280007,12.9899992 14.4899991,12.906 14.67,12.906 Z M23.184,12.906 C23.3400008,12.906 23.4629996,12.9779993 23.553,13.122 C23.6430005,13.2660007 23.688,13.4639987 23.688,13.716 C23.688,14.1960024 23.5740011,14.5679987 23.346,14.832 C22.9019978,15.3720027 22.2750041,15.8699977 21.465,16.326 C20.654996,16.7820023 19.7880046,17.01 18.864,17.01 C17.6039937,17.01 16.6260035,16.6680034 15.93,15.984 C15.2339965,15.2999966 14.886,14.3640059 14.886,13.176 C14.886,12.3479959 15.0599983,11.5770036 15.408,10.863 C15.7560017,10.1489964 16.2389969,9.5820021 16.857,9.162 C17.4750031,8.7419979 18.1739961,8.532 18.954,8.532 C19.6500035,8.532 20.2079979,8.73899793 20.628,9.153 C21.0480021,9.56700207 21.258,10.1279965 21.258,10.836 C21.258,11.6640041 20.961003,12.374997 20.367,12.969 C19.772997,13.563003 18.7680071,14.0339983 17.352,14.382 C17.6520015,14.9340028 18.2219958,15.21 19.062,15.21 C19.6020027,15.21 20.2169966,15.0210019 20.907,14.643 C21.5970035,14.2649981 22.1939975,13.7700031 22.698,13.158 C22.8420007,12.9899992 23.0039991,12.906 23.184,12.906 Z M18.648,10.296 C18.2039978,10.296 17.8290015,10.5539974 17.523,11.07 C17.2169985,11.5860026 17.064,12.2099963 17.064,12.942 L17.064,12.978 C17.7720035,12.8099992 18.329998,12.5580017 18.738,12.222 C19.146002,11.8859983 19.35,11.4960022 19.35,11.052 C19.35,10.8239989 19.2870006,10.6410007 19.161,10.503 C19.0349994,10.3649993 18.8640011,10.296 18.648,10.296 Z M23.508,17.01 C23.0519977,17.01 22.7310009,16.7700024 22.545,16.29 C22.3589991,15.8099976 22.266,15.0420053 22.266,13.986 C22.266,12.4259922 22.4879978,10.944007 22.932,9.54 C23.0400005,9.19199826 23.2169988,8.93700081 23.463,8.775 C23.7090012,8.61299919 24.0539978,8.532 24.498,8.532 C24.7380012,8.532 24.9059995,8.5619997 25.002,8.622 C25.0980005,8.6820003 25.146,8.79599916 25.146,8.964 C25.146,9.15600096 25.0560009,9.58799664 24.876,10.26 C24.7559994,10.7400024 24.6600004,11.1599982 24.588,11.52 C24.5159996,11.8800018 24.4560002,12.3239974 24.408,12.852 C24.804002,11.8199948 25.2479975,10.9800032 25.74,10.332 C26.2320025,9.68399676 26.7149976,9.22200138 27.189,8.946 C27.6630024,8.66999862 28.097998,8.532 28.494,8.532 C29.2740039,8.532 29.664,8.9219961 29.664,9.702 C29.664,10.1700023 29.5320013,11.0159939 29.268,12.24 C29.0399989,13.2840052 28.926,13.9739983 28.926,14.31 C28.926,14.7900024 29.0999983,15.03 29.448,15.03 C29.6880012,15.03 29.9729983,14.8830015 30.303,14.589 C30.6330017,14.2949985 31.0739972,13.8180033 31.626,13.158 C31.7700007,12.9899992 31.9319991,12.906 32.112,12.906 C32.2680008,12.906 32.3909995,12.9779993 32.481,13.122 C32.5710004,13.2660007 32.616,13.4639987 32.616,13.716 C32.616,14.1960024 32.5020011,14.5679987 32.274,14.832 C31.7579974,15.4680032 31.203003,15.989998 30.609,16.398 C30.014997,16.806002 29.3400038,17.01 28.584,17.01 C27.9719969,17.01 27.5100016,16.8330018 27.198,16.479 C26.8859984,16.1249982 26.73,15.6120034 26.73,14.94 C26.73,14.6039983 26.8139992,14.0040043 26.982,13.14 C27.1380008,12.3839962 27.216,11.8620014 27.216,11.574 C27.216,11.381999 27.1500007,11.286 27.018,11.286 C26.8619992,11.286 26.6430014,11.486998 26.361,11.889 C26.0789986,12.291002 25.7910015,12.8219967 25.497,13.482 C25.2029985,14.1420033 24.9660009,14.8379963 24.786,15.57 C24.6539993,16.1340028 24.5010009,16.514999 24.327,16.713 C24.1529991,16.911001 23.8800019,17.01 23.508,17.01 Z M41.382,12.906 C41.5380008,12.906 41.6609995,12.9779993 41.751,13.122 C41.8410004,13.2660007 41.886,13.4639987 41.886,13.716 C41.886,14.1960024 41.7720011,14.5679987 41.544,14.832 C41.0519975,15.432003 40.5120029,15.9449979 39.924,16.371 C39.3359971,16.7970021 38.7540029,17.01 38.178,17.01 C37.2659954,17.01 36.5700024,16.4760053 36.09,15.408 C35.5859975,16.0440032 35.1450019,16.4699989 34.767,16.686 C34.3889981,16.9020011 33.9480025,17.01 33.444,17.01 C32.7119963,17.01 32.1090024,16.7370027 31.635,16.191 C31.1609976,15.6449973 30.924,14.9340044 30.924,14.058 C30.924,13.0979952 31.127998,12.2070041 31.536,11.385 C31.944002,10.5629959 32.5049964,9.89100261 33.219,9.369 C33.9330036,8.84699739 34.7339956,8.53800048 35.622,8.442 C35.8500011,6.11398836 36.2849968,4.12500825 36.927,2.475 C37.5690032,0.82499175 38.4119948,-3.19744231e-14 39.456,-3.19744231e-14 C39.9720026,-3.19744231e-14 40.4009983,0.23399766 40.743,0.702 C41.0850017,1.17000234 41.256,1.87799526 41.256,2.826 C41.256,4.17000672 40.9260033,5.741991 40.266,7.542 C39.6059967,9.342009 38.7240055,11.1899905 37.62,13.086 C37.6680002,13.7820035 37.7729992,14.2799985 37.935,14.58 C38.0970008,14.8800015 38.3039987,15.03 38.556,15.03 C38.8800016,15.03 39.2099983,14.8860014 39.546,14.598 C39.8820017,14.3099986 40.3319972,13.8300034 40.896,13.158 C41.0400007,12.9899992 41.2019991,12.906 41.382,12.906 Z M39.258,1.764 C39.0299989,1.764 38.8020011,2.16899595 38.574,2.979 C38.3459989,3.78900405 38.1510008,4.84799346 37.989,6.156 C37.8269992,7.46400654 37.7100004,8.83199286 37.638,10.26 C38.9820067,7.33198536 39.654,4.98000888 39.654,3.204 C39.654,2.74799772 39.6150004,2.39400126 39.537,2.142 C39.4589996,1.88999874 39.3660005,1.764 39.258,1.764 Z M34.074,15.192 C34.3020011,15.192 34.5299989,15.0990009 34.758,14.913 C34.9860011,14.7269991 35.2739983,14.3820025 35.622,13.878 C35.5019994,13.2299968 35.442,12.504004 35.442,11.7 C35.442,11.4119986 35.4539999,10.9440032 35.478,10.296 C34.8179967,10.500001 34.2690022,10.9409966 33.831,11.619 C33.3929978,12.2970034 33.174,13.0499959 33.174,13.878 C33.174,14.7540044 33.473997,15.192 34.074,15.192 Z M47.25,12.906 C47.4060008,12.906 47.5289996,12.9779993 47.619,13.122 C47.7090005,13.2660007 47.754,13.4639987 47.754,13.716 C47.754,14.1960024 47.6400011,14.5679987 47.412,14.832 C46.8959974,15.4680032 46.335003,15.989998 45.729,16.398 C45.122997,16.806002 44.4360038,17.01 43.668,17.01 C42.6119947,17.01 41.8290026,16.5300048 41.319,15.57 C40.8089974,14.6099952 40.554,13.3680076 40.554,11.844 C40.554,10.3799927 40.7429981,8.71200936 41.121,6.84 C41.4990019,4.96799064 42.0569963,3.36000672 42.795,2.016 C43.5330037,0.67199328 44.4119949,-3.19744231e-14 45.432,-3.19744231e-14 C46.0080029,-3.19744231e-14 46.4609983,0.26699733 46.791,0.801 C47.1210017,1.33500267 47.286,2.09999502 47.286,3.096 C47.286,4.52400714 46.890004,6.17999058 46.098,8.064 C45.305996,9.94800942 44.2320068,11.8139908 42.876,13.662 C42.9600004,14.1540025 43.097999,14.5049989 43.29,14.715 C43.482001,14.925001 43.7339984,15.03 44.046,15.03 C44.5380025,15.03 44.9699981,14.8890014 45.342,14.607 C45.7140019,14.3249986 46.1879971,13.8420034 46.764,13.158 C46.9080007,12.9899992 47.0699991,12.906 47.25,12.906 Z M45.036,1.782 C44.7599986,1.782 44.4480017,2.27999502 44.1,3.276 C43.7519983,4.27200498 43.4460013,5.50799262 43.182,6.984 C42.9179987,8.46000738 42.7740001,9.87599322 42.75,11.232 C43.6020043,9.82799298 44.2799975,8.42100705 44.784,7.011 C45.2880025,5.60099295 45.54,4.31400582 45.54,3.15 C45.54,2.23799544 45.3720017,1.782 45.036,1.782 Z M55.476,11.394 C55.6320008,11.394 55.7519996,11.4719992 55.836,11.628 C55.9200004,11.7840008 55.962,11.9819988 55.962,12.222 C55.962,12.7980029 55.7880017,13.1399995 55.44,13.248 C54.7199964,13.5000013 53.9280043,13.6439998 53.064,13.68 C52.8359989,14.688005 52.3860034,15.494997 51.714,16.101 C51.0419966,16.707003 50.2800043,17.01 49.428,17.01 C48.7079964,17.01 48.0930025,16.8360017 47.583,16.488 C47.0729975,16.1399983 46.6860013,15.6780029 46.422,15.102 C46.1579987,14.5259971 46.026,13.9020034 46.026,13.23 C46.026,12.3179954 46.1999983,11.5050036 46.548,10.791 C46.8960017,10.0769964 47.3759969,9.51900201 47.988,9.117 C48.6000031,8.71499799 49.2779963,8.514 50.022,8.514 C50.9340046,8.514 51.6689972,8.82899685 52.227,9.459 C52.7850028,10.0890031 53.1119995,10.8659954 53.208,11.79 C53.7720028,11.7539998 54.4439961,11.634001 55.224,11.43 C55.3200005,11.4059999 55.4039996,11.394 55.476,11.394 Z M49.572,15.102 C49.9560019,15.102 50.2889986,14.9460016 50.571,14.634 C50.8530014,14.3219984 51.0419995,13.8720029 51.138,13.284 C50.7659981,13.0319987 50.481001,12.702002 50.283,12.294 C50.084999,11.885998 49.986,11.4540023 49.986,10.998 C49.986,10.805999 50.0039998,10.614001 50.04,10.422 L49.95,10.422 C49.4699976,10.422 49.0710016,10.6529977 48.753,11.115 C48.4349984,11.5770023 48.276,12.2279958 48.276,13.068 C48.276,13.7280033 48.4049987,14.2319983 48.663,14.58 C48.9210013,14.9280017 49.2239983,15.102 49.572,15.102 Z M55.692,17.01 C55.2359977,17.01 54.9150009,16.7700024 54.729,16.29 C54.5429991,15.8099976 54.45,15.0420053 54.45,13.986 C54.45,12.4259922 54.6719978,10.944007 55.116,9.54 C55.2240005,9.19199826 55.4009988,8.93700081 55.647,8.775 C55.8930012,8.61299919 56.2379978,8.532 56.682,8.532 C56.9220012,8.532 57.0899995,8.5619997 57.186,8.622 C57.2820005,8.6820003 57.33,8.79599916 57.33,8.964 C57.33,9.15600096 57.2400009,9.58799664 57.06,10.26 C56.9399994,10.7400024 56.8440004,11.1599982 56.772,11.52 C56.6999996,11.8800018 56.6400002,12.3239974 56.592,12.852 C56.988002,11.8199948 57.4319975,10.9800032 57.924,10.332 C58.4160025,9.68399676 58.8989976,9.22200138 59.373,8.946 C59.8470024,8.66999862 60.281998,8.532 60.678,8.532 C61.4580039,8.532 61.848,8.9219961 61.848,9.702 C61.848,9.85800078 61.7940005,10.235997 61.686,10.836 C61.5899995,11.3160024 61.542,11.6159994 61.542,11.736 C61.542,12.1560021 61.6919985,12.366 61.992,12.366 C62.3280017,12.366 62.7599974,12.1020026 63.288,11.574 C63.4440008,11.4179992 63.6059992,11.34 63.774,11.34 C63.9300008,11.34 64.0529996,11.4089993 64.143,11.547 C64.2330005,11.6850007 64.278,11.8679989 64.278,12.096 C64.278,12.5400022 64.1580012,12.8879987 63.918,13.14 C63.5819983,13.4880017 63.1890023,13.7849988 62.739,14.031 C62.2889978,14.2770012 61.8120025,14.4 61.308,14.4 C60.6719968,14.4 60.1890017,14.2380016 59.859,13.914 C59.5289984,13.5899984 59.364,13.1520028 59.364,12.6 C59.364,12.4199991 59.3819998,12.2400009 59.418,12.06 C59.4420001,11.8199988 59.454,11.6580004 59.454,11.574 C59.454,11.381999 59.3880007,11.286 59.256,11.286 C59.0759991,11.286 58.8390015,11.486998 58.545,11.889 C58.2509985,12.291002 57.9600014,12.8219967 57.672,13.482 C57.3839986,14.1420033 57.1500009,14.8379963 56.97,15.57 C56.8379993,16.1340028 56.6850009,16.514999 56.511,16.713 C56.3369991,16.911001 56.0640019,17.01 55.692,17.01 Z M69.156,12.906 C69.2880007,13.8900049 69.4799987,14.8619952 69.732,15.822 C69.7800002,15.9780008 69.804,16.1399992 69.804,16.308 C69.804,16.8480027 69.4740033,17.118 68.814,17.118 C68.4419981,17.118 68.157001,17.016001 67.959,16.812 C67.760999,16.607999 67.5780008,16.2240028 67.41,15.66 L67.392,15.588 C66.9359977,16.1520028 66.5250018,16.529999 66.159,16.722 C65.7929982,16.914001 65.37,17.01 64.89,17.01 C64.1579963,17.01 63.5550024,16.7370027 63.081,16.191 C62.6069976,15.6449973 62.37,14.9340044 62.37,14.058 C62.37,13.0979952 62.573998,12.2100041 62.982,11.394 C63.390002,10.5779959 63.9479965,9.90900261 64.656,9.387 C65.3640035,8.86499739 66.1559956,8.55000054 67.032,8.442 C67.2600011,6.17398866 67.6949968,4.2000084 68.337,2.52 C68.9790032,0.8399916 69.8339947,-3.19744231e-14 70.902,-3.19744231e-14 C71.4180026,-3.19744231e-14 71.8469983,0.23399766 72.189,0.702 C72.5310017,1.17000234 72.702,1.87799526 72.702,2.826 C72.702,4.1460066 72.3780032,5.68799118 71.73,7.452 C71.0819968,9.21600882 70.2240053,11.0339906 69.156,12.906 Z M70.704,1.764 C70.3559983,1.764 70.0290015,2.65199112 69.723,4.428 C69.4169985,6.20400888 69.2100005,8.13598956 69.102,10.224 C70.4340067,7.3439856 71.1,5.004009 71.1,3.204 C71.1,2.74799772 71.0610004,2.39400126 70.983,2.142 C70.9049996,1.88999874 70.8120005,1.764 70.704,1.764 Z M65.52,15.192 C65.7600012,15.192 65.9909989,15.1020009 66.213,14.922 C66.4350011,14.7419991 66.7199983,14.3940026 67.068,13.878 C66.9479994,13.0019956 66.888,12.0960047 66.888,11.16 C66.888,10.7879981 66.8939999,10.500001 66.906,10.296 C66.2459967,10.488001 65.7000022,10.9259966 65.268,11.61 C64.8359978,12.2940034 64.62,13.0499959 64.62,13.878 C64.62,14.7540044 64.919997,15.192 65.52,15.192 Z" id="Lendlord" fill-rule="nonzero"></path>
                <path d="M4.00949585,7.8984724 C2.56533215,7.8984724 1.738,8.40505269 1.738,9.04591425 C1.738,9.68677582 2.36569872,10.1418243 4.56464908,10.1418243 C6.76359944,10.1418243 9.24360167,10.1418243 9.24360167,9.04591425 C9.24360167,7.95000424 5.45365955,7.8984724 4.00949585,7.8984724 Z" id="Path"></path>
            </g>
        </g>
    </g>
</svg>